# Blender 4.3.2
# www.blender.org
mtllib myholeinthewall_plus_full2.mtl
o Cube
v 0.501878 0.500000 -0.500000
v 0.501878 -0.500000 -0.500000
v 0.501878 0.500000 0.500000
v 0.501878 -0.500000 0.500000
v 0.401878 0.500000 -0.500000
v 0.401878 -0.500000 -0.500000
v 0.401878 0.500000 0.500000
v 0.401878 -0.500000 0.500000
vn -0.0000 1.0000 -0.0000
vn -0.0000 -0.0000 1.0000
vn -1.0000 -0.0000 -0.0000
vn -0.0000 -1.0000 -0.0000
vn 1.0000 -0.0000 -0.0000
vn -0.0000 -0.0000 -1.0000
vt 0.022443 0.974052
vt 0.022442 1.323661
vt -0.327166 1.323661
vt -0.327166 0.974052
vt 0.372051 1.323661
vt 0.022442 1.323661
vt 0.022443 0.974052
vt 0.372051 0.974052
vt 0.721660 1.323661
vt 0.721660 0.974052
vt 1.420877 -0.948884
vt 1.420877 -0.599275
vt 1.071269 -0.599275
vt 1.071269 -0.948884
vt 1.420877 -0.245435
vt 1.071269 -0.245435
vt 1.071269 -0.595043
vt 1.420877 -0.595043
vt 1.420877 0.104174
vt 1.071269 0.104174
vt 1.071269 -0.245435
vt 1.420877 -0.245435
s 0
usemtl Material
f 1/1/1 5/2/1 7/3/1 3/4/1
f 4/5/2 3/6/2 7/7/2 8/8/2
f 8/9/3 7/5/3 5/8/3 6/10/3
f 6/11/4 2/12/4 4/13/4 8/14/4
f 2/15/5 1/16/5 3/17/5 4/18/5
f 6/19/6 5/20/6 1/21/6 2/22/6
o Cube.001
v -0.405106 0.500000 -0.500000
v -0.405106 -0.500000 -0.500000
v -0.405106 0.500000 0.500000
v -0.405106 -0.500000 0.500000
v -0.505106 0.500000 -0.500000
v -0.505106 -0.500000 -0.500000
v -0.505106 0.500000 0.500000
v -0.505106 -0.500000 0.500000
vn -0.0000 1.0000 -0.0000
vn -0.0000 -0.0000 1.0000
vn -1.0000 -0.0000 -0.0000
vn -0.0000 -1.0000 -0.0000
vn 1.0000 -0.0000 -0.0000
vn -0.0000 -0.0000 -1.0000
vt 1.420878 0.104174
vt 1.420878 0.453783
vt 1.071269 0.453783
vt 1.071269 0.104174
vt 1.420877 0.803392
vt 1.071269 0.803392
vt 1.420877 1.153000
vt 1.071269 1.153000
vt 1.420877 1.502609
vt 1.071269 1.502609
vt 1.071269 1.523767
vt 0.721660 1.523767
vt 0.721660 1.174159
vt 1.071269 1.174159
vt 0.022442 1.673270
vt -0.327166 1.673270
vt -0.327166 1.323661
vt 0.022442 1.323661
s 0
usemtl Material
f 9/23/7 13/24/7 15/25/7 11/26/7
f 12/27/8 11/28/8 15/25/8 16/24/8
f 16/29/9 15/30/9 13/28/9 14/27/9
f 14/29/10 10/31/10 12/32/10 16/30/10
f 10/33/11 9/34/11 11/35/11 12/36/11
f 14/37/12 13/38/12 9/39/12 10/40/12
o Cube.002
v -0.406455 0.498650 -0.500000
v 0.403228 0.498650 -0.500000
v -0.406455 0.498650 0.500000
v 0.403228 0.498650 0.500000
v -0.406455 0.398650 -0.500000
v 0.403228 0.398650 -0.500000
v -0.406455 0.398650 0.500000
v 0.403228 0.398650 0.500000
vn -1.0000 -0.0000 -0.0000
vn -0.0000 -0.0000 1.0000
vn -0.0000 -1.0000 -0.0000
vn 1.0000 -0.0000 -0.0000
vn -0.0000 1.0000 -0.0000
vn -0.0000 -0.0000 -1.0000
vt 0.372051 1.323661
vt 0.372051 1.673270
vt 0.022442 1.673270
vt 0.022442 1.323661
vt 0.721660 -0.595043
vt 0.721660 -0.948884
vt 1.071269 -0.948884
vt 1.071269 -0.595043
vt 0.721660 -0.241203
vt 1.071269 -0.241203
vt 0.721660 1.323661
vt 0.721660 1.673270
vt 0.721660 0.112637
vt 0.721660 -0.241203
vt 1.071269 -0.241203
vt 1.071269 0.112637
vt 0.721660 0.466478
vt 0.721660 0.112637
vt 1.071269 0.112637
vt 1.071269 0.466478
s 0
usemtl Material
f 17/41/13 21/42/13 23/43/13 19/44/13
f 20/45/14 19/46/14 23/47/14 24/48/14
f 24/49/15 23/45/15 21/48/15 22/50/15
f 22/51/16 18/52/16 20/42/16 24/41/16
f 18/53/17 17/54/17 19/55/17 20/56/17
f 22/57/18 21/58/18 17/59/18 18/60/18
o Cube.003
v -0.406455 -0.398650 -0.500000
v 0.403228 -0.398650 -0.500000
v -0.406455 -0.398650 0.500000
v 0.403228 -0.398650 0.500000
v -0.406455 -0.498650 -0.500000
v 0.403228 -0.498650 -0.500000
v -0.406455 -0.498650 0.500000
v 0.403228 -0.498650 0.500000
vn -1.0000 -0.0000 -0.0000
vn -0.0000 -0.0000 1.0000
vn -0.0000 -1.0000 -0.0000
vn 1.0000 -0.0000 -0.0000
vn -0.0000 1.0000 -0.0000
vn -0.0000 -0.0000 -1.0000
vt -0.676775 1.327893
vt -0.676775 1.677501
vt -1.026384 1.677501
vt -1.026384 1.327893
vt 0.721660 0.820318
vt 0.721660 0.466478
vt 1.071269 0.466478
vt 1.071269 0.820318
vt 0.721660 1.174159
vt 1.071269 1.174159
vt 1.770486 -0.948884
vt 1.770486 -0.599275
vt 1.420877 -0.599275
vt 1.420877 -0.948884
vt -1.026384 1.327893
vt -1.026384 0.974052
vt -0.676775 0.974052
vt -0.676775 1.327893
vt -0.327166 0.974052
vt -0.327166 1.327893
s 0
usemtl Material
f 25/61/19 29/62/19 31/63/19 27/64/19
f 28/65/20 27/66/20 31/67/20 32/68/20
f 32/69/21 31/65/21 29/68/21 30/70/21
f 30/71/22 26/72/22 28/73/22 32/74/22
f 26/75/23 25/76/23 27/77/23 28/78/23
f 30/78/24 29/77/24 25/79/24 26/80/24
o Cube.004
v -0.406455 0.398592 -0.500000
v -0.129342 0.398591 -0.500000
v -0.406455 0.398592 0.500000
v -0.129343 0.398591 0.500000
v -0.409666 0.123592 -0.500338
v -0.132553 0.123591 -0.500337
v -0.409666 0.123592 0.499662
v -0.132553 0.123591 0.499663
vn -0.9999 0.0117 -0.0000
vn -0.0000 -0.0012 1.0000
vn -0.0000 -1.0000 -0.0000
vn 0.9999 -0.0117 -0.0000
vn -0.0000 1.0000 -0.0000
vn -0.0000 0.0012 -1.0000
vt -0.327166 0.012541
vt -0.327166 -0.948884
vt 0.022442 -0.948841
vt 0.022442 0.012584
vt 1.541979 1.323928
vt 1.420878 1.323752
vt 1.420878 0.362327
vt 1.541979 0.362503
vt -0.327166 1.677501
vt -0.448268 1.677501
vt -0.448268 1.327893
vt -0.327166 1.327893
vt 0.372051 -0.948884
vt 0.372051 0.012541
vt 0.022443 0.012584
vt 0.022443 -0.948841
vt 0.842761 1.873376
vt 0.721660 1.873376
vt 0.721660 1.523767
vt 0.842761 1.523767
vt 1.784181 -0.599099
vt 1.905282 -0.599275
vt 1.905282 0.362150
vt 1.784181 0.362326
s 0
usemtl Material
f 33/81/25 37/82/25 39/83/25 35/84/25
f 36/85/26 35/86/26 39/87/26 40/88/26
f 40/89/27 39/90/27 37/91/27 38/92/27
f 38/93/28 34/94/28 36/95/28 40/96/28
f 34/97/29 33/98/29 35/99/29 36/100/29
f 38/101/30 37/102/30 33/103/30 34/104/30
o Cube.005
v -0.406455 -0.124296 -0.500000
v -0.129342 -0.124296 -0.500000
v -0.406455 -0.124296 0.500000
v -0.129343 -0.124296 0.500000
v -0.409666 -0.399296 -0.500338
v -0.132553 -0.399296 -0.500337
v -0.409666 -0.399296 0.499662
v -0.132553 -0.399296 0.499663
vn -0.9999 0.0117 -0.0000
vn -0.0000 -0.0012 1.0000
vn -0.0000 -1.0000 -0.0000
vn 0.9999 -0.0117 -0.0000
vn -0.0000 1.0000 -0.0000
vn -0.0000 0.0012 -1.0000
vt 0.372051 0.012541
vt 0.372051 -0.948884
vt 0.721660 -0.948841
vt 0.721660 0.012584
vt 1.663080 0.362327
vt 1.541979 0.362150
vt 1.541979 -0.599275
vt 1.663080 -0.599099
vt -0.448268 1.677501
vt -0.569369 1.677501
vt -0.569369 1.327893
vt -0.448268 1.327893
vt -0.676775 0.012584
vt -0.676775 0.974009
vt -1.026384 0.974052
vt -1.026384 0.012627
vt 0.963863 1.873376
vt 0.842761 1.873376
vt 0.842762 1.523767
vt 0.963863 1.523767
vt 1.784181 0.362503
vt 1.905282 0.362326
vt 1.905282 1.323751
vt 1.784181 1.323928
s 0
usemtl Material
f 41/105/31 45/106/31 47/107/31 43/108/31
f 44/109/32 43/110/32 47/111/32 48/112/32
f 48/113/33 47/114/33 45/115/33 46/116/33
f 46/117/34 42/118/34 44/119/34 48/120/34
f 42/121/35 41/122/35 43/123/35 44/124/35
f 46/125/36 45/126/36 41/127/36 42/128/36
o Cube.006
v 0.126115 -0.124296 -0.500000
v 0.403228 -0.124296 -0.500000
v 0.126115 -0.124296 0.500000
v 0.403228 -0.124296 0.500000
v 0.122905 -0.399296 -0.500338
v 0.400018 -0.399296 -0.500337
v 0.122905 -0.399296 0.499662
v 0.400017 -0.399296 0.499663
vn -0.9999 0.0117 -0.0000
vn -0.0000 -0.0012 1.0000
vn -0.0000 -1.0000 -0.0000
vn 0.9999 -0.0117 -0.0000
vn -0.0000 1.0000 -0.0000
vn -0.0000 0.0012 -1.0000
vt -0.676775 0.974009
vt -0.676775 0.012584
vt -0.327166 0.012627
vt -0.327166 0.974052
vt 1.663080 1.323928
vt 1.541979 1.323752
vt 1.541979 0.362327
vt 1.663080 0.362503
vt 1.192370 1.852218
vt 1.071269 1.852218
vt 1.071269 1.502609
vt 1.192370 1.502609
vt 0.022443 0.012584
vt 0.022443 0.974009
vt -0.327166 0.974052
vt -0.327166 0.012627
vt 1.891588 -0.599275
vt 1.770486 -0.599275
vt 1.770486 -0.948884
vt 1.891588 -0.948884
vt 1.905282 -0.599099
vt 2.026383 -0.599275
vt 2.026383 0.362150
vt 1.905282 0.362326
s 0
usemtl Material
f 49/129/37 53/130/37 55/131/37 51/132/37
f 52/133/38 51/134/38 55/135/38 56/136/38
f 56/137/39 55/138/39 53/139/39 54/140/39
f 54/141/40 50/142/40 52/143/40 56/144/40
f 50/145/41 49/146/41 51/147/41 52/148/41
f 54/149/42 53/150/42 49/151/42 50/152/42
o Cube.007
v 0.126115 -0.124296 -0.500000
v 0.403228 -0.124296 -0.500000
v 0.126115 -0.124296 0.500000
v 0.403228 -0.124296 0.500000
v 0.122905 -0.399296 -0.500338
v 0.400018 -0.399296 -0.500337
v 0.122905 -0.399296 0.499662
v 0.400017 -0.399296 0.499663
vn -0.9999 0.0117 -0.0000
vn -0.0000 -0.0012 1.0000
vn -0.0000 -1.0000 -0.0000
vn 0.9999 -0.0117 -0.0000
vn -0.0000 1.0000 -0.0000
vn -0.0000 0.0012 -1.0000
vt 0.022443 0.974009
vt 0.022443 0.012584
vt 0.372051 0.012627
vt 0.372051 0.974052
vt 1.784181 0.362327
vt 1.663080 0.362150
vt 1.663080 -0.599275
vt 1.784181 -0.599099
vt 1.313472 1.852218
vt 1.192370 1.852218
vt 1.192370 1.502609
vt 1.313472 1.502609
vt 0.721660 0.012584
vt 0.721660 0.974009
vt 0.372051 0.974052
vt 0.372051 0.012627
vt 1.905283 1.673537
vt 1.784182 1.673537
vt 1.784182 1.323928
vt 1.905283 1.323928
vt 1.905282 0.362503
vt 2.026384 0.362326
vt 2.026384 1.323751
vt 1.905282 1.323928
s 0
usemtl Material
f 57/153/43 61/154/43 63/155/43 59/156/43
f 60/157/44 59/158/44 63/159/44 64/160/44
f 64/161/45 63/162/45 61/163/45 62/164/45
f 62/165/46 58/166/46 60/167/46 64/168/46
f 58/169/47 57/170/47 59/171/47 60/172/47
f 62/173/48 61/174/48 57/175/48 58/176/48
o Cube.008
v 0.126115 0.401819 -0.500000
v 0.403228 0.401819 -0.500000
v 0.126115 0.401819 0.500000
v 0.403228 0.401819 0.500000
v 0.122905 0.126819 -0.500338
v 0.400018 0.126819 -0.500337
v 0.122905 0.126819 0.499662
v 0.400017 0.126819 0.499663
vn -0.9999 0.0117 -0.0000
vn -0.0000 -0.0012 1.0000
vn -0.0000 -1.0000 -0.0000
vn 0.9999 -0.0117 -0.0000
vn -0.0000 1.0000 -0.0000
vn -0.0000 0.0012 -1.0000
vt -1.026384 0.012541
vt -1.026384 -0.948884
vt -0.676775 -0.948841
vt -0.676775 0.012584
vt 1.541979 0.362327
vt 1.420878 0.362150
vt 1.420878 -0.599275
vt 1.541979 -0.599099
vt 1.541979 1.673537
vt 1.420877 1.673537
vt 1.420877 1.323928
vt 1.541979 1.323928
vt -0.327166 -0.948884
vt -0.327166 0.012541
vt 1.784181 1.673537
vt 1.663080 1.673537
vt 1.663080 1.323928
vt 1.784181 1.323928
vt 1.663080 0.362503
vt 1.784181 0.362326
vt 1.784181 1.323751
vt 1.663080 1.323928
s 0
usemtl Material
f 65/177/49 69/178/49 71/179/49 67/180/49
f 68/181/50 67/182/50 71/183/50 72/184/50
f 72/185/51 71/186/51 69/187/51 70/188/51
f 70/189/52 66/190/52 68/180/52 72/179/52
f 66/191/53 65/192/53 67/193/53 68/194/53
f 70/195/54 69/196/54 65/197/54 66/198/54
