# Blender 4.3.2
# www.blender.org
mtllib myholeinthewall_iron_cross.mtl
o Cube
v 0.501878 0.500000 -0.496315
v 0.501878 -0.500000 -0.496315
v 0.501878 0.500000 -0.005657
v 0.501878 -0.500000 -0.005657
v 0.401878 0.500000 -0.496315
v 0.401878 -0.500000 -0.496315
v 0.401878 0.500000 -0.005657
v 0.401878 -0.500000 -0.005657
vn -0.0000 1.0000 -0.0000
vn -0.0000 -0.0000 1.0000
vn -1.0000 -0.0000 -0.0000
vn -0.0000 -1.0000 -0.0000
vn 1.0000 -0.0000 -0.0000
vn -0.0000 -0.0000 -1.0000
vt 1.195762 -0.251914
vt 1.195762 0.105897
vt 0.837951 0.105897
vt 0.837951 -0.251914
vt 1.195762 0.463708
vt 0.837951 0.463708
vt 0.837951 0.105897
vt 1.195762 0.105897
vt 1.195762 0.821519
vt 0.837951 0.821519
vt 1.195762 1.179330
vt 0.837951 1.179330
vt 0.837951 1.349664
vt 0.480140 1.349664
vt 0.480140 0.991853
vt 0.837951 0.991853
vt 0.122328 1.351523
vt -0.235483 1.351523
vt -0.235483 0.993712
vt 0.122328 0.993712
s 0
usemtl Material
f 1/1/1 5/2/1 7/3/1 3/4/1
f 4/5/2 3/6/2 7/7/2 8/8/2
f 8/9/3 7/10/3 5/6/3 6/5/3
f 6/9/4 2/11/4 4/12/4 8/10/4
f 2/13/5 1/14/5 3/15/5 4/16/5
f 6/17/6 5/18/6 1/19/6 2/20/6
o Cube.001
v -0.405106 0.500000 -0.496315
v -0.405106 -0.500000 -0.496315
v -0.405106 0.500000 -0.005657
v -0.405106 -0.500000 -0.005657
v -0.505106 0.500000 -0.496315
v -0.505106 -0.500000 -0.496315
v -0.505106 0.500000 -0.005657
v -0.505106 -0.500000 -0.005657
vn -0.0000 1.0000 -0.0000
vn -0.0000 -0.0000 1.0000
vn -1.0000 -0.0000 -0.0000
vn -0.0000 -1.0000 -0.0000
vn 1.0000 -0.0000 -0.0000
vn -0.0000 -0.0000 -1.0000
vt 0.480140 0.993712
vt 0.480140 1.351523
vt 0.122329 1.351523
vt 0.122329 0.993712
vt -0.593294 1.454104
vt -0.951105 1.454104
vt -0.951105 1.096293
vt -0.593294 1.096293
vt 1.553573 -0.618387
vt 1.195762 -0.618387
vt 1.195762 -0.976198
vt 1.553573 -0.976198
vt 1.553573 -0.614056
vt 1.553573 -0.256245
vt 1.195762 -0.256245
vt 1.195762 -0.614056
vt 1.553573 0.101566
vt 1.195762 0.101566
vt 1.195762 -0.256245
vt 1.553573 -0.256245
vt 1.553573 0.459377
vt 1.195762 0.459377
vt 1.195762 0.101566
s 0
usemtl Material
f 9/21/7 13/22/7 15/23/7 11/24/7
f 12/25/8 11/26/8 15/27/8 16/28/8
f 16/29/9 15/30/9 13/31/9 14/32/9
f 14/33/10 10/34/10 12/35/10 16/36/10
f 10/37/11 9/38/11 11/39/11 12/40/11
f 14/41/12 13/42/12 9/43/12 10/37/12
o Cube.002
v -0.406455 0.498650 -0.496315
v 0.403228 0.498650 -0.496315
v -0.406455 0.498650 -0.005657
v 0.403228 0.498650 -0.005657
v -0.406455 0.398650 -0.496315
v 0.403228 0.398650 -0.496315
v -0.406455 0.398650 -0.005657
v 0.403228 0.398650 -0.005657
vn -1.0000 -0.0000 -0.0000
vn -0.0000 -0.0000 1.0000
vn -0.0000 -1.0000 -0.0000
vn 1.0000 -0.0000 -0.0000
vn -0.0000 1.0000 -0.0000
vn -0.0000 -0.0000 -1.0000
vt 1.553573 0.463708
vt 1.553573 0.821519
vt 1.195762 0.821519
vt 1.195762 0.463708
vt -0.951105 0.372009
vt -0.951105 0.009867
vt -0.593294 0.009867
vt -0.593294 0.372009
vt -0.593294 0.372009
vt -0.593294 0.009867
vt -0.235483 0.009867
vt -0.235483 0.372009
vt 1.553573 1.179330
vt 1.195762 1.179330
vt -0.951105 0.734151
vt -0.951105 0.372009
vt -0.593294 0.372009
vt -0.593294 0.734151
vt -0.235483 0.372009
vt -0.235483 0.734151
s 0
usemtl Material
f 17/44/13 21/45/13 23/46/13 19/47/13
f 20/48/14 19/49/14 23/50/14 24/51/14
f 24/52/15 23/53/15 21/54/15 22/55/15
f 22/45/16 18/56/16 20/57/16 24/46/16
f 18/58/17 17/59/17 19/60/17 20/61/17
f 22/61/18 21/60/18 17/62/18 18/63/18
o Cube.003
v -0.406455 -0.398650 -0.496315
v 0.403228 -0.398650 -0.496315
v -0.406455 -0.398650 -0.005657
v 0.403228 -0.398650 -0.005657
v -0.406455 -0.498650 -0.496315
v 0.403228 -0.498650 -0.496315
v -0.406455 -0.498650 -0.005657
v 0.403228 -0.498650 -0.005657
vn -1.0000 -0.0000 -0.0000
vn -0.0000 -0.0000 1.0000
vn -0.0000 -1.0000 -0.0000
vn 1.0000 -0.0000 -0.0000
vn -0.0000 1.0000 -0.0000
vn -0.0000 -0.0000 -1.0000
vt 1.195762 1.179330
vt 1.195762 1.537141
vt 0.837951 1.537141
vt 0.837951 1.179330
vt -0.951105 1.096293
vt -0.951105 0.734151
vt -0.593294 0.734151
vt -0.593294 1.096293
vt -0.235483 0.734151
vt -0.235483 1.096293
vt 1.553573 1.179330
vt 1.553573 1.537141
vt 0.837951 -0.614056
vt 0.837951 -0.976198
vt 1.195762 -0.976198
vt 1.195762 -0.614056
vt 0.837951 -0.251914
vt 0.837951 -0.614056
vt 1.195762 -0.614056
vt 1.195762 -0.251914
s 0
usemtl Material
f 25/64/19 29/65/19 31/66/19 27/67/19
f 28/68/20 27/69/20 31/70/20 32/71/20
f 32/71/21 31/70/21 29/72/21 30/73/21
f 30/74/22 26/75/22 28/65/22 32/64/22
f 26/76/23 25/77/23 27/78/23 28/79/23
f 30/80/24 29/81/24 25/82/24 26/83/24
o Cube.004
v -0.406455 0.398592 -0.496315
v -0.129343 0.398591 -0.496315
v -0.406455 0.398592 -0.005657
v -0.129343 0.398591 -0.005657
v -0.409666 0.123592 -0.496481
v -0.409666 0.123592 -0.005823
v -0.130948 0.261091 -0.496398
v -0.271109 0.123592 -0.496481
v -0.130948 0.261091 -0.005740
v -0.271109 0.123592 -0.005823
v -0.130948 0.261091 -0.496398
v -0.271109 0.123592 -0.496481
v -0.271109 0.123592 -0.005823
v -0.130948 0.261091 -0.005740
vn -0.9999 0.0117 -0.0000
vn -0.0000 -0.0006 1.0000
vn -0.0000 0.0006 -1.0000
vn -0.0000 1.0000 -0.0000
vn -0.0000 -1.0000 -0.0000
vn 0.7003 -0.7139 -0.0000
vn 0.9999 -0.0117 -0.0000
vt 0.480140 0.991809
vt 0.480140 0.007827
vt 0.837951 0.007871
vt 0.837951 0.991853
vt 1.801458 0.007964
vt 1.677516 0.007784
vt 1.677516 -0.976198
vt 1.739487 -0.976108
vt 1.801458 -0.484027
vt 1.553573 -0.484027
vt 1.615545 -0.976107
vt 1.677516 -0.976198
vt 1.677516 0.007784
vt 1.553573 0.007964
vt 0.728025 1.707475
vt 0.604083 1.707475
vt 0.604083 1.349664
vt 0.728025 1.349664
vt -0.483368 1.454104
vt -0.545340 1.454104
vt -0.545340 1.096293
vt -0.483368 1.096293
vt -0.593294 -0.481203
vt -0.951105 -0.481159
vt -0.951105 -0.976154
vt -0.593294 -0.976198
vt -0.593294 0.009823
vt -0.951105 0.009867
s 0
usemtl Material
f 33/84/25 37/85/25 38/86/25 35/87/25
f 36/88/26 35/89/26 38/90/26 42/91/26 45/91/26 46/92/26 41/92/26
f 43/93/27 44/94/27 40/94/27 37/95/27 33/96/27 34/97/27 39/93/27
f 34/98/28 33/99/28 35/100/28 36/101/28
f 45/102/29 42/102/29 38/103/29 37/104/29 40/105/29 44/105/29
f 43/106/30 46/107/30 45/108/30 44/109/30
f 43/106/31 39/106/31 34/110/31 36/111/31 41/107/31 46/107/31
o Cube.005
v -0.406455 -0.124296 -0.496315
v -0.406455 -0.124296 -0.005657
v -0.409666 -0.399296 -0.496481
v -0.132553 -0.399296 -0.496481
v -0.409666 -0.399296 -0.005823
v -0.132553 -0.399296 -0.005822
v -0.267899 -0.124296 -0.496315
v -0.130948 -0.261796 -0.496398
v -0.130948 -0.261796 -0.005740
v -0.267899 -0.124296 -0.005657
v -0.267899 -0.124296 -0.496315
v -0.130948 -0.261796 -0.496398
v -0.130948 -0.261796 -0.005740
v -0.267899 -0.124296 -0.005657
vn -0.9999 0.0117 -0.0000
vn -0.0000 -1.0000 -0.0000
vn -0.0000 -0.0006 1.0000
vn 0.9999 -0.0117 -0.0000
vn -0.0000 1.0000 -0.0000
vn 0.7085 0.7057 -0.0000
vn -0.0000 0.0006 -1.0000
vt -0.235483 0.993668
vt -0.235483 0.009687
vt 0.122328 0.009731
vt 0.122328 0.993712
vt -0.235483 1.454104
vt -0.359426 1.454104
vt -0.359426 1.096293
vt -0.235483 1.096293
vt 1.925400 1.484117
vt 1.863429 1.976017
vt 1.801458 1.975927
vt 1.801458 0.991946
vt 1.925400 0.992126
vt 0.122329 0.009687
vt 0.122329 -0.481338
vt 0.480140 -0.481382
vt 0.480140 0.009643
vt 0.789997 1.707475
vt 0.728025 1.707475
vt 0.728025 1.349664
vt 0.789997 1.349664
vt 0.122329 -0.976154
vt 0.480140 -0.976198
vt 1.553573 0.992307
vt 1.677516 0.992126
vt 1.677516 1.976108
vt 1.615545 1.976198
vt 1.553573 1.484298
s 0
usemtl Material
f 47/112/32 49/113/32 51/114/32 48/115/32
f 52/116/33 51/117/33 49/118/33 50/119/33
f 59/120/34 60/121/34 56/121/34 48/122/34 51/123/34 52/124/34 55/120/34
f 50/125/35 54/126/35 58/126/35 59/127/35 55/127/35 52/128/35
f 57/129/36 53/129/36 47/130/36 48/131/36 56/132/36 60/132/36
f 59/127/37 58/126/37 57/133/37 60/134/37
f 50/135/38 49/136/38 47/137/38 53/138/38 57/138/38 58/139/38 54/139/38
o Cube.006
v 0.403228 -0.124296 -0.496315
v 0.403228 -0.124296 -0.005657
v 0.122905 -0.399296 -0.496481
v 0.400018 -0.399296 -0.496481
v 0.122905 -0.399296 -0.005823
v 0.400017 -0.399296 -0.005822
v 0.264671 -0.124296 -0.496315
v 0.124510 -0.261796 -0.496398
v 0.264671 -0.124296 -0.005657
v 0.124510 -0.261796 -0.005740
v 0.124510 -0.261796 -0.496398
v 0.264671 -0.124296 -0.496315
v 0.264671 -0.124296 -0.005657
v 0.124510 -0.261796 -0.005740
vn -0.0000 0.0006 -1.0000
vn -0.0000 -1.0000 -0.0000
vn 0.9999 -0.0117 -0.0000
vn -0.9999 0.0117 -0.0000
vn -0.0000 -0.0006 1.0000
vn -0.7003 0.7139 -0.0000
vn -0.0000 1.0000 -0.0000
vt 1.677516 0.008145
vt 1.801458 0.007964
vt 1.801458 0.499955
vt 1.739487 0.992036
vt 1.677516 0.992126
vt -0.359426 1.454104
vt -0.483368 1.454104
vt -0.483368 1.096293
vt -0.359426 1.096293
vt 0.480140 0.009687
vt 0.480140 0.993668
vt 0.122329 0.993712
vt 0.122329 0.009731
vt -0.593294 -0.485172
vt -0.593294 -0.976198
vt -0.235483 -0.976154
vt -0.235483 -0.485128
vt 1.677516 0.992126
vt 1.615544 0.992036
vt 1.553573 0.499955
vt 1.553573 0.007964
vt 1.677516 0.008145
vt -0.235483 0.009867
vt -0.593294 0.009823
vt -0.111540 1.709334
vt -0.173511 1.709334
vt -0.173511 1.351523
vt -0.111540 1.351523
s 0
usemtl Material
f 64/140/39 63/141/39 68/142/39 71/142/39 72/143/39 67/143/39 61/144/39
f 66/145/40 65/146/40 63/147/40 64/148/40
f 64/149/41 61/150/41 62/151/41 66/152/41
f 71/153/42 68/153/42 63/154/42 65/155/42 70/156/42 74/156/42
f 62/157/43 69/158/43 73/158/43 74/159/43 70/159/43 65/160/43 66/161/43
f 71/153/44 74/156/44 73/162/44 72/163/44
f 61/164/45 67/165/45 72/165/45 73/166/45 69/166/45 62/167/45
o Cube.008
v 0.126115 0.401819 -0.496315
v 0.403228 0.401819 -0.496315
v 0.126115 0.401819 -0.005657
v 0.403228 0.401819 -0.005657
v 0.400018 0.126819 -0.496481
v 0.400017 0.126819 -0.005822
v 0.261461 0.126819 -0.005823
v 0.124510 0.264319 -0.005740
v 0.124510 0.264319 -0.496398
v 0.261461 0.126819 -0.496481
v 0.261461 0.126819 -0.496481
v 0.124510 0.264319 -0.496398
v 0.124510 0.264319 -0.005740
v 0.261461 0.126819 -0.005823
vn -0.0000 0.0006 -1.0000
vn -0.9999 0.0117 -0.0000
vn 0.9999 -0.0117 -0.0000
vn -0.0000 1.0000 -0.0000
vn -0.0000 -0.0006 1.0000
vn -0.7085 -0.7057 -0.0000
vn -0.0000 -1.0000 -0.0000
vt 1.801458 0.007964
vt 1.863430 0.007874
vt 1.925401 0.499774
vt 1.925401 0.991765
vt 1.801458 0.991946
vt 0.122328 -0.976154
vt 0.122329 -0.485129
vt -0.235482 -0.485173
vt -0.235483 -0.976198
vt 0.837951 -0.976198
vt 0.837951 0.007784
vt 0.480140 0.007828
vt 0.480140 -0.976154
vt 0.604082 1.707475
vt 0.480140 1.707475
vt 0.480140 1.349664
vt 0.604083 1.349664
vt 1.925400 0.007874
vt 1.801458 0.007693
vt 1.801458 -0.484297
vt 1.863429 -0.976198
vt 1.925400 -0.976108
vt 0.122328 0.009687
vt -0.235483 0.009643
vt -0.173511 1.709334
vt -0.235483 1.709334
vt -0.235483 1.351523
vt -0.173511 1.351523
s 0
usemtl Material
f 79/168/46 84/169/46 85/169/46 86/170/46 83/170/46 75/171/46 76/172/46
f 75/173/47 83/174/47 86/174/47 87/175/47 82/175/47 77/176/47
f 79/177/48 76/178/48 78/179/48 80/180/48
f 76/181/49 75/182/49 77/183/49 78/184/49
f 78/185/50 77/186/50 82/187/50 87/187/50 88/188/50 81/188/50 80/189/50
f 87/175/51 86/174/51 85/190/51 88/191/51
f 80/192/52 81/193/52 88/193/52 85/194/52 84/194/52 79/195/52
