# Blender 4.3.2
# www.blender.org
mtllib myholeinthewall_plus2.mtl
o Cube
v 0.501878 0.500000 -0.493862
v 0.501878 -0.500000 -0.493862
v 0.501878 0.500000 -0.003204
v 0.501878 -0.500000 -0.003204
v 0.401878 0.500000 -0.493862
v 0.401878 -0.500000 -0.493862
v 0.401878 0.500000 -0.003204
v 0.401878 -0.500000 -0.003204
vn -0.0000 1.0000 -0.0000
vn -0.0000 -0.0000 1.0000
vn -1.0000 -0.0000 -0.0000
vn -0.0000 -1.0000 -0.0000
vn 1.0000 -0.0000 -0.0000
vn -0.0000 -0.0000 -1.0000
vt 0.986341 0.513885
vt 0.881482 0.509979
vt 0.881482 0.010589
vt 0.986341 0.014495
vt 0.010495 0.023388
vt 0.982869 0.023388
vt 0.982869 0.144820
vt 0.010495 0.144819
vt 0.034344 0.082075
vt 0.810579 0.082076
vt 0.810579 0.582702
vt 0.034344 0.582702
vt 0.999677 0.506565
vt 0.865518 0.502659
vt 0.865518 -0.002594
vt 0.999677 0.001313
vt 0.515174 1.012341
vt 0.515174 0.042086
vt 1.024862 0.042086
vt 1.024862 1.012341
vt 0.003419 0.014309
vt 0.975794 0.014309
vt 0.975794 0.135741
vt 0.003419 0.135741
s 0
usemtl Material
f 1/1/1 5/2/1 7/3/1 3/4/1
f 4/5/2 3/6/2 7/7/2 8/8/2
f 8/9/3 7/10/3 5/11/3 6/12/3
f 6/13/4 2/14/4 4/15/4 8/16/4
f 2/17/5 1/18/5 3/19/5 4/20/5
f 6/21/6 5/22/6 1/23/6 2/24/6
o Cube.001
v -0.405106 0.500000 -0.493862
v -0.405106 -0.500000 -0.493862
v -0.405106 0.500000 -0.003204
v -0.405106 -0.500000 -0.003204
v -0.505106 0.500000 -0.493862
v -0.505106 -0.500000 -0.493862
v -0.505106 0.500000 -0.003204
v -0.505106 -0.500000 -0.003204
vn -0.0000 1.0000 -0.0000
vn -0.0000 -0.0000 1.0000
vn -1.0000 -0.0000 -0.0000
vn -0.0000 -1.0000 -0.0000
vn 1.0000 -0.0000 -0.0000
vn -0.0000 -0.0000 -1.0000
vt 0.990468 0.511446
vt 0.885609 0.507540
vt 0.885609 0.008150
vt 0.990468 0.012056
vt 0.014695 0.015175
vt 0.987070 0.015175
vt 0.987070 0.136607
vt 0.014695 0.136607
vt 0.505815 1.024139
vt 0.498002 0.061538
vt 1.015662 0.061538
vt 1.023474 1.024139
vt 0.992133 0.507376
vt 0.856353 0.503469
vt 0.856353 -0.003405
vt 0.992133 0.000502
vt 0.036240 0.117473
vt 0.812475 0.117474
vt 0.812475 0.618101
vt 0.036240 0.618101
vt 0.006750 0.017620
vt 0.979125 0.017620
vt 0.979125 0.139052
vt 0.006750 0.139052
s 0
usemtl Material
f 9/25/7 13/26/7 15/27/7 11/28/7
f 12/29/8 11/30/8 15/31/8 16/32/8
f 16/33/9 15/34/9 13/35/9 14/36/9
f 14/37/10 10/38/10 12/39/10 16/40/10
f 10/41/11 9/42/11 11/43/11 12/44/11
f 14/45/12 13/46/12 9/47/12 10/48/12
o Cube.002
v -0.406455 0.498650 -0.493862
v 0.403228 0.498650 -0.493862
v -0.406455 0.498650 -0.003204
v 0.403228 0.498650 -0.003204
v -0.406455 0.398650 -0.493862
v 0.403228 0.398650 -0.493862
v -0.406455 0.398650 -0.003204
v 0.403228 0.398650 -0.003204
vn -1.0000 -0.0000 -0.0000
vn -0.0000 -0.0000 1.0000
vn -0.0000 -1.0000 -0.0000
vn 1.0000 -0.0000 -0.0000
vn -0.0000 1.0000 -0.0000
vn -0.0000 -0.0000 -1.0000
vt 0.373105 -0.314730
vt 0.373105 -0.661777
vt 0.720151 -0.661777
vt 0.720151 -0.314730
vt 0.649127 0.717305
vt 1.385769 0.717305
vt 1.385769 1.017219
vt 0.649127 1.017219
vt 0.797334 0.097692
vt 0.797334 0.607714
vt 0.021099 0.607714
vt 0.021099 0.097692
vt 0.026058 -0.314731
vt 0.026058 -0.661777
vt 0.248825 0.512002
vt 0.998717 0.512002
vt 0.998717 0.997895
vt 0.248825 0.997895
vt 0.640166 0.411076
vt 1.376809 0.411076
vt 1.376809 0.710991
vt 0.640166 0.710991
s 0
usemtl Material
f 17/49/13 21/50/13 23/51/13 19/52/13
f 20/53/14 19/54/14 23/55/14 24/56/14
f 24/57/15 23/58/15 21/59/15 22/60/15
f 22/61/16 18/62/16 20/50/16 24/49/16
f 18/63/17 17/64/17 19/65/17 20/66/17
f 22/67/18 21/68/18 17/69/18 18/70/18
o Cube.003
v -0.406455 -0.398650 -0.493862
v 0.403228 -0.398650 -0.493862
v -0.406455 -0.398650 -0.003204
v 0.403228 -0.398650 -0.003204
v -0.406455 -0.498650 -0.493862
v 0.403228 -0.498650 -0.493862
v -0.406455 -0.498650 -0.003204
v 0.403228 -0.498650 -0.003204
vn -1.0000 -0.0000 -0.0000
vn -0.0000 -0.0000 1.0000
vn -0.0000 -1.0000 -0.0000
vn 1.0000 -0.0000 -0.0000
vn -0.0000 1.0000 -0.0000
vn -0.0000 -0.0000 -1.0000
vt 1.414244 -0.318931
vt 1.414244 -0.665977
vt 1.761291 -0.665977
vt 1.761291 -0.318931
vt 0.642850 0.087835
vt 1.379493 0.087835
vt 1.379493 0.387750
vt 0.642850 0.387750
vt 0.252867 0.522966
vt 1.012193 0.522966
vt 1.012193 1.002556
vt 0.252867 1.002556
vt -1.015081 1.941159
vt -1.015081 1.594112
vt -0.668035 1.594112
vt -0.668035 1.941159
vt 0.813474 0.092366
vt 0.813474 0.602389
vt 0.037239 0.602389
vt 0.037239 0.092366
vt 0.632741 -0.261188
vt 1.369383 -0.261188
vt 1.369383 0.038727
vt 0.632741 0.038727
s 0
usemtl Material
f 25/71/19 29/72/19 31/73/19 27/74/19
f 28/75/20 27/76/20 31/77/20 32/78/20
f 32/79/21 31/80/21 29/81/21 30/82/21
f 30/83/22 26/84/22 28/85/22 32/86/22
f 26/87/23 25/88/23 27/89/23 28/90/23
f 30/91/24 29/92/24 25/93/24 26/94/24
o Cube.004
v -0.406455 0.398592 -0.493862
v -0.129343 0.398591 -0.493862
v -0.406455 0.398592 -0.003204
v -0.129343 0.398591 -0.003204
v -0.409666 0.123592 -0.494028
v -0.132553 0.123591 -0.494027
v -0.409666 0.123592 -0.003369
v -0.132553 0.123591 -0.003369
vn -0.9999 0.0117 -0.0000
vn -0.0000 -0.0006 1.0000
vn -0.0000 -1.0000 -0.0000
vn 0.9999 -0.0117 -0.0000
vn -0.0000 1.0000 -0.0000
vn -0.0000 0.0006 -1.0000
vt 1.067198 0.986780
vt 1.067198 1.941159
vt 0.720151 1.941116
vt 0.720151 0.986737
vt 0.670060 -0.006454
vt 1.032422 -0.005926
vt 1.032422 0.340947
vt 0.670060 0.340420
vt 1.101608 2.877470
vt 1.469011 2.877470
vt 1.469011 3.445972
vt 1.101608 3.445972
vt -0.414346 3.457001
vt -0.414346 2.896348
vt -0.067299 2.896305
vt -0.067299 3.456959
vt -0.094155 -0.860417
vt 0.026058 -0.860417
vt 0.026058 -0.513370
vt -0.094155 -0.513370
vt 0.986949 0.336125
vt 0.663610 0.328487
vt 0.663610 -0.000892
vt 0.986949 0.006746
s 0
usemtl Material
f 33/95/25 37/96/25 39/97/25 35/98/25
f 36/99/26 35/100/26 39/101/26 40/102/26
f 40/103/27 39/104/27 37/105/27 38/106/27
f 38/107/28 34/108/28 36/109/28 40/110/28
f 34/111/29 33/112/29 35/113/29 36/114/29
f 38/115/30 37/116/30 33/117/30 34/118/30
o Cube.005
v -0.406455 -0.124296 -0.493862
v -0.129343 -0.124296 -0.493862
v -0.406455 -0.124296 -0.003204
v -0.129343 -0.124296 -0.003204
v -0.409666 -0.399296 -0.494028
v -0.132553 -0.399296 -0.494027
v -0.409666 -0.399296 -0.003369
v -0.132553 -0.399296 -0.003369
vn -0.9999 0.0117 -0.0000
vn -0.0000 -0.0006 1.0000
vn -0.0000 -1.0000 -0.0000
vn 0.9999 -0.0117 -0.0000
vn -0.0000 1.0000 -0.0000
vn -0.0000 0.0006 -1.0000
vt 0.373105 0.986780
vt 0.373105 1.941159
vt 0.026058 1.941116
vt 0.026058 0.986737
vt 0.655354 -0.000892
vt 1.017715 -0.000365
vt 1.017715 0.346509
vt 0.655354 0.345981
vt 1.187412 -0.665977
vt 1.307626 -0.665977
vt 1.307626 -0.318931
vt 1.187412 -0.318931
vt 0.728666 3.448978
vt 0.728666 2.888325
vt 1.075712 2.888282
vt 1.075712 3.448936
vt 1.535486 2.854117
vt 1.902890 2.854117
vt 1.902889 3.422620
vt 1.535486 3.422620
vt 0.986949 0.334696
vt 0.687048 0.334871
vt 0.687048 -0.002320
vt 0.986949 -0.002496
s 0
usemtl Material
f 41/119/31 45/120/31 47/121/31 43/122/31
f 44/123/32 43/124/32 47/125/32 48/126/32
f 48/127/33 47/128/33 45/129/33 46/130/33
f 46/131/34 42/132/34 44/133/34 48/134/34
f 42/135/35 41/136/35 43/137/35 44/138/35
f 46/139/36 45/140/36 41/141/36 42/142/36
o Cube.006
v 0.126115 -0.124296 -0.493862
v 0.403228 -0.124296 -0.493862
v 0.126115 -0.124296 -0.003204
v 0.403228 -0.124296 -0.003204
v 0.122905 -0.399296 -0.494028
v 0.400018 -0.399296 -0.494027
v 0.122905 -0.399296 -0.003369
v 0.400017 -0.399296 -0.003369
vn -0.9999 0.0117 -0.0000
vn -0.0000 -0.0006 1.0000
vn -0.0000 -1.0000 -0.0000
vn 0.9999 -0.0117 -0.0000
vn -0.0000 1.0000 -0.0000
vn -0.0000 0.0006 -1.0000
vt 0.728666 2.888325
vt 0.728666 3.448978
vt 0.381620 3.448936
vt 0.381620 2.888282
vt 0.667345 0.005948
vt 1.029706 0.006476
vt 1.029706 0.353349
vt 0.667345 0.352821
vt -0.441202 -0.839414
vt -0.320988 -0.839414
vt -0.320988 -0.492367
vt -0.441202 -0.492367
vt 0.782651 -0.685138
vt 0.782651 -1.639516
vt 1.129698 -1.639559
vt 1.129698 -0.685180
vt 2.402242 2.855297
vt 2.769644 2.855297
vt 2.769644 3.423800
vt 2.402241 3.423800
vt 0.999548 0.336125
vt 0.684022 0.336300
vt 0.684022 0.006921
vt 0.999548 0.006746
s 0
usemtl Material
f 49/143/37 53/144/37 55/145/37 51/146/37
f 52/147/38 51/148/38 55/149/38 56/150/38
f 56/151/39 55/152/39 53/153/39 54/154/39
f 54/155/40 50/156/40 52/157/40 56/158/40
f 50/159/41 49/160/41 51/161/41 52/162/41
f 54/163/42 53/164/42 49/165/42 50/166/42
o Cube.007
v 0.126115 -0.124296 -0.493862
v 0.403228 -0.124296 -0.493862
v 0.126115 -0.124296 -0.003204
v 0.403228 -0.124296 -0.003204
v 0.122905 -0.399296 -0.494028
v 0.400018 -0.399296 -0.494027
v 0.122905 -0.399296 -0.003369
v 0.400017 -0.399296 -0.003369
vn -0.9999 0.0117 -0.0000
vn -0.0000 -0.0006 1.0000
vn -0.0000 -1.0000 -0.0000
vn 0.9999 -0.0117 -0.0000
vn -0.0000 1.0000 -0.0000
vn -0.0000 0.0006 -1.0000
vt 0.782651 -1.639516
vt 0.782651 -0.685138
vt 0.435605 -0.685180
vt 0.435605 -1.639559
vt -1.028676 0.639558
vt -0.908462 0.639733
vt -0.908462 1.594112
vt -1.028676 1.593937
vt -0.561416 -0.839414
vt -0.441202 -0.839414
vt -0.441202 -0.492367
vt -0.561416 -0.492367
vt 0.088558 -0.685138
vt 0.088558 -1.639516
vt 0.435605 -1.639559
vt -1.148890 -0.662042
vt -1.028676 -0.662042
vt -1.028676 -0.314996
vt -1.148890 -0.314996
vt -1.148890 0.639383
vt -1.269103 0.639558
vt -1.269103 -0.314820
vt -1.148890 -0.314996
s 0
usemtl Material
f 57/167/43 61/168/43 63/169/43 59/170/43
f 60/171/44 59/172/44 63/173/44 64/174/44
f 64/175/45 63/176/45 61/177/45 62/178/45
f 62/179/46 58/180/46 60/181/46 64/169/46
f 58/182/47 57/183/47 59/184/47 60/185/47
f 62/186/48 61/187/48 57/188/48 58/189/48
o Cube.008
v 0.126115 0.401819 -0.493862
v 0.403228 0.401819 -0.493862
v 0.126115 0.401819 -0.003204
v 0.403228 0.401819 -0.003204
v 0.122905 0.126819 -0.494028
v 0.400018 0.126819 -0.494027
v 0.122905 0.126819 -0.003369
v 0.400017 0.126819 -0.003369
vn -0.9999 0.0117 -0.0000
vn -0.0000 -0.0006 1.0000
vn -0.0000 -1.0000 -0.0000
vn 0.9999 -0.0117 -0.0000
vn -0.0000 1.0000 -0.0000
vn -0.0000 0.0006 -1.0000
vt 0.343879 2.896348
vt 0.343879 3.457001
vt -0.003167 3.456959
vt -0.003167 2.896305
vt 0.658069 0.023911
vt 1.020431 0.024439
vt 1.020431 0.371312
vt 0.658069 0.370784
vt 1.986432 2.850125
vt 2.353835 2.850125
vt 2.353835 3.418628
vt 1.986432 3.418628
vt 1.067198 1.941159
vt 1.067198 0.986780
vt 1.414244 0.986737
vt 1.414244 1.941116
vt -1.028676 -0.662042
vt -0.908462 -0.662042
vt -0.908462 -0.314996
vt -1.028676 -0.314996
vt 0.989975 0.350321
vt 0.674449 0.342683
vt 0.674449 -0.002320
vt 0.989975 0.005317
s 0
usemtl Material
f 65/190/49 69/191/49 71/192/49 67/193/49
f 68/194/50 67/195/50 71/196/50 72/197/50
f 72/198/51 71/199/51 69/200/51 70/201/51
f 70/202/52 66/203/52 68/204/52 72/205/52
f 66/206/53 65/207/53 67/208/53 68/209/53
f 70/210/54 69/211/54 65/212/54 66/213/54
