# Blender 4.3.2
# www.blender.org
mtllib myholeinthewall_diamond_full.mtl
o Cube
v 0.500000 0.500000 -0.500000
v 0.500000 -0.500000 -0.500000
v 0.500000 0.500000 0.500000
v 0.500000 -0.500000 0.500000
v 0.305634 0.500000 -0.500000
v 0.305634 -0.500000 -0.500000
v 0.305634 0.500000 0.500000
v 0.305634 -0.500000 0.500000
vn -0.0000 1.0000 -0.0000
vn -0.0000 -0.0000 1.0000
vn -1.0000 -0.0000 -0.0000
vn -0.0000 -1.0000 -0.0000
vn 1.0000 -0.0000 -0.0000
vn -0.0000 -0.0000 -1.0000
vt 0.774991 0.024912
vt 0.961728 0.024912
vt 0.961728 0.985657
vt 0.774991 0.985657
vt 0.217634 0.043890
vt 0.217634 1.004636
vt 0.030897 1.004636
vt 0.030897 0.043890
vt 0.026953 0.979832
vt 0.987699 0.979833
vt 0.987699 1.940578
vt 0.026953 1.940578
vt 0.039610 0.025663
vt 0.226347 0.025663
vt 0.226347 0.986409
vt 0.039610 0.986409
vt 0.013100 0.005233
vt 1.001552 0.005233
vt 1.001552 0.993686
vt 0.013100 0.993686
vt 0.204519 0.024912
vt 0.204519 0.985657
vt 0.017782 0.985657
vt 0.017782 0.024912
s 0
usemtl Material
f 1/1/1 5/2/1 7/3/1 3/4/1
f 4/5/2 3/6/2 7/7/2 8/8/2
f 8/9/3 7/10/3 5/11/3 6/12/3
f 6/13/4 2/14/4 4/15/4 8/16/4
f 2/17/5 1/18/5 3/19/5 4/20/5
f 6/21/6 5/22/6 1/23/6 2/24/6
o Cube.001
v -0.305634 0.500000 -0.500000
v -0.305634 -0.500000 -0.500000
v -0.305634 0.500000 0.500000
v -0.305634 -0.500000 0.500000
v -0.500000 0.500000 -0.500000
v -0.500000 -0.500000 -0.500000
v -0.500000 0.500000 0.500000
v -0.500000 -0.500000 0.500000
vn -0.0000 1.0000 -0.0000
vn -0.0000 -0.0000 1.0000
vn -1.0000 -0.0000 -0.0000
vn -0.0000 -1.0000 -0.0000
vn 1.0000 -0.0000 -0.0000
vn -0.0000 -0.0000 -1.0000
vt 0.028635 0.013261
vt 0.215372 0.013261
vt 0.215372 0.974007
vt 0.028635 0.974007
vt 0.987244 0.037313
vt 0.987244 0.998059
vt 0.800508 0.998059
vt 0.800508 0.037313
vt 0.005553 0.009405
vt 0.993091 0.009405
vt 0.993091 0.996943
vt 0.005553 0.996943
vt 0.775704 0.019087
vt 0.962441 0.019087
vt 0.962441 0.979833
vt 0.775704 0.979833
vt 0.987699 0.019087
vt 1.948445 0.019087
vt 1.948445 0.979832
vt 0.987699 0.979832
vt 0.983556 0.038065
vt 0.983556 0.998811
vt 0.796819 0.998811
vt 0.796819 0.038065
s 0
usemtl Material
f 9/25/7 13/26/7 15/27/7 11/28/7
f 12/29/8 11/30/8 15/31/8 16/32/8
f 16/33/9 15/34/9 13/35/9 14/36/9
f 14/37/10 10/38/10 12/39/10 16/40/10
f 10/41/11 9/42/11 11/43/11 12/44/11
f 14/45/12 13/46/12 9/47/12 10/48/12
o Cube.002
v -0.306338 0.500000 -0.500000
v 0.306338 0.500000 -0.500000
v -0.306338 0.500000 0.500000
v 0.306338 0.500000 0.500000
v -0.306338 0.305634 -0.500000
v 0.306338 0.305634 -0.500000
v -0.306338 0.305634 0.500000
v 0.306338 0.305634 0.500000
vn -1.0000 -0.0000 -0.0000
vn -0.0000 -0.0000 1.0000
vn -0.0000 -1.0000 -0.0000
vn 1.0000 -0.0000 -0.0000
vn -0.0000 1.0000 -0.0000
vn -0.0000 -0.0000 -1.0000
vt -1.768757 0.979833
vt -1.582020 0.979833
vt -1.582020 1.940578
vt -1.768757 1.940578
vt 0.184190 0.828532
vt 0.772816 0.828532
vt 0.772816 1.015269
vt 0.184189 1.015269
vt -0.561672 0.979832
vt 0.026953 0.979833
vt 0.026953 1.940578
vt -0.561672 1.940578
vt -1.582020 0.019087
vt -1.395284 0.019087
vt -1.395284 0.979833
vt -1.582020 0.979833
vt 0.225524 0.025664
vt 0.814150 0.025663
vt 0.814150 0.986409
vt 0.225524 0.986409
vt 0.208279 0.791328
vt 0.796906 0.791328
vt 0.796906 0.978064
vt 0.208279 0.978064
s 0
usemtl Material
f 17/49/13 21/50/13 23/51/13 19/52/13
f 20/53/14 19/54/14 23/55/14 24/56/14
f 24/57/15 23/58/15 21/59/15 22/60/15
f 22/61/16 18/62/16 20/63/16 24/64/16
f 18/65/17 17/66/17 19/67/17 20/68/17
f 22/69/18 21/70/18 17/71/18 18/72/18
o Cube.003
v -0.306338 -0.305634 -0.500000
v 0.306338 -0.305634 -0.500000
v -0.306338 -0.305634 0.500000
v 0.306338 -0.305634 0.500000
v -0.306338 -0.500000 -0.500000
v 0.306338 -0.500000 -0.500000
v -0.306338 -0.500000 0.500000
v 0.306338 -0.500000 0.500000
vn -1.0000 -0.0000 -0.0000
vn -0.0000 -0.0000 1.0000
vn -0.0000 -1.0000 -0.0000
vn 1.0000 -0.0000 -0.0000
vn -0.0000 1.0000 -0.0000
vn -0.0000 -0.0000 -1.0000
vt -1.768757 0.019087
vt -1.582020 0.019087
vt -1.582020 0.979833
vt -1.768757 0.979833
vt 0.207566 0.010029
vt 0.796192 0.010029
vt 0.796192 0.196766
vt 0.207566 0.196766
vt 0.218874 0.013261
vt 0.807501 0.013261
vt 0.807501 0.974007
vt 0.218874 0.974007
vt -1.722126 -0.941660
vt -1.535389 -0.941660
vt -1.535389 0.019086
vt -1.722126 0.019086
vt 0.182567 -0.941660
vt 0.771193 -0.941660
vt 0.771193 0.019086
vt 0.182567 0.019086
vt 0.228043 0.022430
vt 0.816670 0.022431
vt 0.816670 0.209167
vt 0.228044 0.209167
s 0
usemtl Material
f 25/73/19 29/74/19 31/75/19 27/76/19
f 28/77/20 27/78/20 31/79/20 32/80/20
f 32/81/21 31/82/21 29/83/21 30/84/21
f 30/85/22 26/86/22 28/87/22 32/88/22
f 26/89/23 25/90/23 27/91/23 28/92/23
f 30/93/24 29/94/24 25/95/24 26/96/24
o Cube.004
v -0.306338 0.301731 -0.500000
v -0.290377 0.306129 -0.500000
v -0.306339 0.301732 0.500000
v -0.290377 0.306128 0.500000
v -0.306338 0.011589 -0.500000
v -0.000235 0.306129 -0.500000
v -0.306339 0.011590 0.500000
v -0.000235 0.306128 0.500000
vn -1.0000 -0.0000 -0.0000
vn -0.0000 -0.0000 1.0000
vn 0.6934 -0.7206 -0.0000
vn -0.0000 1.0000 -0.0000
vn -0.2656 0.9641 -0.0000
vn -0.0000 -0.0000 -1.0000
vt -0.601705 0.019086
vt -0.788442 0.019086
vt -0.788442 -0.941660
vt -0.601705 -0.941660
vt 0.954673 0.027987
vt 0.984113 0.036711
vt 0.973754 0.574736
vt 0.416647 0.017629
vt 0.877982 0.861795
vt 0.105805 0.861794
vt 0.105805 0.074767
vt 0.877982 0.074768
vt 0.182567 0.019086
vt -0.002485 0.019086
vt -0.002485 -0.941660
vt 0.182567 -0.941660
vt -0.013045 0.019086
vt -0.013045 -0.941660
vt 0.012676 0.488769
vt 0.498306 0.974399
vt 0.029310 0.983429
vt 0.021705 0.957766
s 0
usemtl Material
f 33/97/25 37/98/25 39/99/25 35/100/25
f 36/101/26 35/102/26 39/103/26 40/104/26
f 40/105/27 39/106/27 37/107/27 38/108/27
f 38/109/28 34/110/28 36/111/28 40/112/28
f 34/110/29 33/113/29 35/114/29 36/111/29
f 38/115/30 37/116/30 33/117/30 34/118/30
o Cube.007
v -0.301732 -0.306338 -0.500000
v -0.306129 -0.290377 -0.500000
v -0.301732 -0.306339 0.500000
v -0.306129 -0.290377 0.500000
v -0.011589 -0.306338 -0.500000
v -0.306129 -0.000235 -0.500000
v -0.011590 -0.306339 0.500000
v -0.306129 -0.000235 0.500000
vn -0.0000 -1.0000 -0.0000
vn -0.0000 -0.0000 1.0000
vn 0.7206 0.6934 -0.0000
vn -1.0000 -0.0000 -0.0000
vn -0.9641 -0.2656 -0.0000
vn -0.0000 -0.0000 -1.0000
vt -0.788442 0.019086
vt -0.975179 0.019086
vt -0.975179 -0.941660
vt -0.788442 -0.941660
vt 0.974563 0.026116
vt 0.996041 0.032480
vt 0.988484 0.424987
vt 0.582055 0.018559
vt 0.947535 0.892772
vt 0.175359 0.892771
vt 0.175358 0.105743
vt 0.947535 0.105744
vt -0.014871 0.019086
vt -0.199923 0.019086
vt -0.199923 -0.941660
vt -0.014871 -0.941660
vt -0.210482 0.019086
vt -0.210482 -0.941660
vt 0.016679 0.353153
vt 0.646836 0.983311
vt 0.038263 0.995029
vt 0.028396 0.961728
s 0
usemtl Material
f 41/119/31 45/120/31 47/121/31 43/122/31
f 44/123/32 43/124/32 47/125/32 48/126/32
f 48/127/33 47/128/33 45/129/33 46/130/33
f 46/131/34 42/132/34 44/133/34 48/134/34
f 42/132/35 41/135/35 43/136/35 44/133/35
f 46/137/36 45/138/36 41/139/36 42/140/36
o Cube.008
v 0.306339 -0.301731 -0.500001
v 0.290378 -0.306129 -0.500000
v 0.306339 -0.301732 0.499999
v 0.290378 -0.306129 0.500000
v 0.306339 -0.011589 -0.500001
v 0.000236 -0.306129 -0.500000
v 0.306339 -0.011590 0.499999
v 0.000236 -0.306129 0.500000
vn 1.0000 -0.0000 -0.0000
vn -0.0000 -0.0000 1.0000
vn -0.6934 0.7206 -0.0000
vn -0.0000 -1.0000 -0.0000
vn 0.2656 -0.9641 -0.0000
vn -0.0000 -0.0000 -1.0000
vt -0.835074 1.940578
vt -1.021810 1.940578
vt -1.021810 0.979833
vt -0.835074 0.979832
vt 0.980603 0.007947
vt 1.005438 0.015305
vt 0.996699 0.469140
vt 0.526767 -0.000791
vt 0.876404 0.929976
vt 0.104228 0.929976
vt 0.104228 0.142948
vt 0.876404 0.142949
vt -0.210482 0.019086
vt -0.395535 0.019086
vt -0.395535 -0.941660
vt -0.210482 -0.941660
vt -0.406094 0.019086
vt -0.406094 -0.941660
vt 0.001419 0.498553
vt 0.492189 0.989323
vt 0.018229 0.998448
vt 0.010544 0.972513
s 0
usemtl Material
f 49/141/37 53/142/37 55/143/37 51/144/37
f 52/145/38 51/146/38 55/147/38 56/148/38
f 56/149/39 55/150/39 53/151/39 54/152/39
f 54/153/40 50/154/40 52/155/40 56/156/40
f 50/154/41 49/157/41 51/158/41 52/155/41
f 54/159/42 53/160/42 49/161/42 50/162/42
o Cube.009
v 0.301731 0.306339 -0.500000
v 0.306129 0.290378 -0.500000
v 0.301732 0.306339 0.500000
v 0.306128 0.290378 0.500000
v 0.011589 0.306339 -0.500000
v 0.306129 0.000236 -0.500000
v 0.011589 0.306339 0.500000
v 0.306129 0.000236 0.500000
vn -0.0000 1.0000 -0.0000
vn -0.0000 -0.0000 1.0000
vn -0.7206 -0.6934 -0.0000
vn 1.0000 -0.0000 -0.0000
vn 0.9641 0.2656 -0.0000
vn -0.0000 -0.0000 -1.0000
vt -0.835074 0.979832
vt -1.021810 0.979832
vt -1.021810 0.019087
vt -0.835074 0.019087
vt 0.962495 0.027649
vt 0.987889 0.035172
vt 0.978953 0.499242
vt 0.498424 0.018713
vt 0.916888 0.855567
vt 0.144712 0.855566
vt 0.144712 0.068539
vt 0.916888 0.068539
vt -0.406094 0.019086
vt -0.591146 0.019086
vt -0.591146 -0.941660
vt -0.406094 -0.941660
vt -0.601705 0.019086
vt -0.601706 -0.941660
vt 0.010425 0.355632
vt 0.635716 0.980923
vt 0.031843 0.992550
vt 0.022052 0.959506
s 0
usemtl Material
f 57/163/43 61/164/43 63/165/43 59/166/43
f 60/167/44 59/168/44 63/169/44 64/170/44
f 64/171/45 63/172/45 61/173/45 62/174/45
f 62/175/46 58/176/46 60/177/46 64/178/46
f 58/176/47 57/179/47 59/180/47 60/177/47
f 62/181/48 61/182/48 57/183/48 58/184/48
