# Blender 4.3.2
# www.blender.org
mtllib myholeinthewall_rough_diamond_full.mtl
o Cube
v 0.501878 0.500000 -0.495419
v 0.501878 -0.500000 -0.495419
v 0.501878 0.500000 0.490820
v 0.501878 -0.500000 0.490820
v 0.401878 0.500000 -0.495419
v 0.401878 -0.500000 -0.495419
v 0.401878 0.500000 0.490820
v 0.401878 -0.500000 0.490820
vn -0.0000 1.0000 -0.0000
vn -0.0000 -0.0000 1.0000
vn -1.0000 -0.0000 -0.0000
vn -0.0000 -1.0000 -0.0000
vn 1.0000 -0.0000 -0.0000
vn -0.0000 -0.0000 -1.0000
vt 0.866981 1.491801
vt 0.866981 1.736802
vt 0.621980 1.736801
vt 0.621980 1.491801
vt 0.866981 1.981802
vt 0.621980 1.981802
vt 0.376979 1.984768
vt 0.131978 1.984768
vt 0.131978 1.739767
vt 0.376979 1.739767
vt 2.100447 0.988006
vt 2.100447 1.233007
vt 1.855446 1.233007
vt 1.855446 0.988006
vt 2.100447 1.478008
vt 1.855446 1.478008
vt 2.100447 1.723009
vt 1.855446 1.723009
vt 1.855446 1.478008
vt 2.100447 1.478008
s 0
usemtl Material
f 1/1/1 5/2/1 7/3/1 3/4/1
f 4/5/2 3/6/2 7/3/2 8/2/2
f 8/7/3 7/8/3 5/9/3 6/10/3
f 6/11/4 2/12/4 4/13/4 8/14/4
f 2/15/5 1/16/5 3/13/5 4/12/5
f 6/17/6 5/18/6 1/19/6 2/20/6
o Cube.001
v -0.405106 0.500000 -0.495419
v -0.405106 -0.500000 -0.495419
v -0.405106 0.500000 0.490820
v -0.405106 -0.500000 0.490820
v -0.505106 0.500000 -0.495419
v -0.505106 -0.500000 -0.495419
v -0.505106 0.500000 0.490820
v -0.505106 -0.500000 0.490820
vn -0.0000 1.0000 -0.0000
vn -0.0000 -0.0000 1.0000
vn -1.0000 -0.0000 -0.0000
vn -0.0000 -1.0000 -0.0000
vn 1.0000 -0.0000 -0.0000
vn -0.0000 -0.0000 -1.0000
vt 2.100447 1.723009
vt 2.100447 1.968010
vt 1.855446 1.968010
vt 1.855446 1.723009
vt 2.212580 0.252573
vt 1.967580 0.252573
vt 1.967580 0.007572
vt 2.212580 0.007572
vt 2.212580 0.497573
vt 1.967580 0.497573
vt 1.967580 0.252573
vt 2.212580 0.252573
vt 2.212580 0.742574
vt 1.967580 0.742574
vt 2.212580 0.987575
vt 1.967580 0.987575
vt 1.967580 0.742574
vt 2.212580 0.742574
vt 2.100447 2.213011
vt 1.855446 2.213011
s 0
usemtl Material
f 9/21/7 13/22/7 15/23/7 11/24/7
f 12/25/8 11/26/8 15/27/8 16/28/8
f 16/29/9 15/30/9 13/31/9 14/32/9
f 14/29/10 10/33/10 12/34/10 16/30/10
f 10/35/11 9/36/11 11/37/11 12/38/11
f 14/39/12 13/40/12 9/23/12 10/22/12
o Cube.002
v -0.406455 0.498650 -0.495419
v 0.403228 0.498650 -0.495419
v -0.406455 0.498650 0.490819
v 0.403228 0.498650 0.490819
v -0.406455 0.398650 -0.495419
v 0.403228 0.398650 -0.495419
v -0.406455 0.398650 0.490819
v 0.403228 0.398650 0.490819
vn -1.0000 -0.0000 -0.0000
vn -0.0000 -0.0000 1.0000
vn -0.0000 -1.0000 -0.0000
vn 1.0000 -0.0000 -0.0000
vn -0.0000 1.0000 -0.0000
vn -0.0000 -0.0000 -1.0000
vt 1.111982 1.968441
vt 1.111982 2.213442
vt 0.866981 2.213442
vt 0.866981 1.968441
vt 0.131978 1.243834
vt 0.131978 0.995868
vt 0.376979 0.995868
vt 0.376979 1.243834
vt 0.621980 0.995868
vt 0.621980 1.243834
vt 1.727231 1.968441
vt 1.727231 2.213442
vt 1.482230 2.213442
vt 1.482230 1.968441
vt 0.866981 0.995868
vt 0.866981 1.243834
vt 0.131978 1.491801
vt 0.376979 1.491801
s 0
usemtl Material
f 17/41/13 21/42/13 23/43/13 19/44/13
f 20/45/14 19/46/14 23/47/14 24/48/14
f 24/48/15 23/47/15 21/49/15 22/50/15
f 22/51/16 18/52/16 20/53/16 24/54/16
f 18/50/17 17/49/17 19/55/17 20/56/17
f 22/57/18 21/45/18 17/48/18 18/58/18
o Cube.003
v -0.406455 -0.398650 -0.495419
v 0.403228 -0.398650 -0.495419
v -0.406455 -0.398650 0.490819
v 0.403228 -0.398650 0.490819
v -0.406455 -0.498650 -0.495419
v 0.403228 -0.498650 -0.495419
v -0.406455 -0.498650 0.490819
v 0.403228 -0.498650 0.490819
vn -1.0000 -0.0000 -0.0000
vn -0.0000 -0.0000 1.0000
vn -0.0000 -1.0000 -0.0000
vn 1.0000 -0.0000 -0.0000
vn -0.0000 1.0000 -0.0000
vn -0.0000 -0.0000 -1.0000
vt 1.356983 1.976303
vt 1.356983 2.221304
vt 1.111982 2.221304
vt 1.111982 1.976303
vt 0.376979 1.491801
vt 0.376979 1.243834
vt 0.621980 1.243834
vt 0.621980 1.491801
vt 0.866981 1.243834
vt 0.866981 1.491801
vt 0.866981 1.981802
vt 0.866981 2.226803
vt 0.621980 2.226803
vt 0.621980 1.981802
vt 0.131978 1.739767
vt 0.131978 1.491801
vt 0.376979 1.739767
vt 0.621980 1.739767
s 0
usemtl Material
f 25/59/19 29/60/19 31/61/19 27/62/19
f 28/63/20 27/64/20 31/65/20 32/66/20
f 32/66/21 31/65/21 29/67/21 30/68/21
f 30/69/22 26/70/22 28/71/22 32/72/22
f 26/73/23 25/74/23 27/63/23 28/75/23
f 30/75/24 29/63/24 25/66/24 26/76/24
o Cube.004
v -0.406483 0.401889 -0.496725
v -0.000262 0.401889 -0.496725
v -0.406483 0.401889 0.489514
v -0.000262 0.401889 0.489514
v -0.406483 0.001713 -0.496725
v -0.406483 0.001713 0.489514
v -0.000262 0.401889 -0.496725
v -0.406483 0.001713 -0.496725
v -0.406483 0.001713 0.489514
v -0.000262 0.401889 0.489514
vn -1.0000 -0.0000 -0.0000
vn -0.0000 -0.0000 1.0000
vn -0.0000 -0.0000 -1.0000
vn -0.0000 1.0000 -0.0000
vn 0.7018 -0.7124 -0.0000
vt 1.477578 0.007572
vt 1.477578 0.988006
vt 1.232577 0.988006
vt 1.232577 0.007572
vt 1.731041 1.968441
vt 1.606635 1.968441
vt 1.606635 0.988006
vt 1.482230 1.968441
vt 1.606634 0.988006
vt 1.606635 1.968441
vt 1.851636 2.213442
vt 1.727231 2.213442
vt 1.727231 1.968441
vt 1.851636 1.968441
vt 0.252574 0.995868
vt 0.742575 0.995868
vt 0.497575 0.995868
vt 0.497575 0.007572
vt 0.742575 0.007572
s 0
usemtl Material
f 33/77/25 37/78/25 38/79/25 35/80/25
f 36/81/26 35/82/26 38/83/26 41/83/26 42/81/26
f 39/84/27 40/85/27 37/85/27 33/86/27 34/84/27
f 34/87/28 33/88/28 35/89/28 36/90/28
f 41/91/25 38/91/25 37/91/25 40/91/25
f 39/92/29 42/93/29 41/94/29 40/95/29
f 39/91/25 34/91/25 36/91/25 42/91/25
o Cube.005
v -0.406483 0.002115 -0.496725
v -0.406483 0.002115 0.489514
v -0.406483 -0.398061 -0.496725
v -0.000262 -0.398061 -0.496725
v -0.406483 -0.398061 0.489514
v -0.000262 -0.398061 0.489514
v -0.406483 0.002115 -0.496725
v -0.000262 -0.398061 -0.496725
v -0.000262 -0.398061 0.489514
v -0.406483 0.002115 0.489514
vn -1.0000 -0.0000 -0.0000
vn -0.0000 -1.0000 -0.0000
vn -0.0000 -0.0000 1.0000
vn 0.7018 0.7124 -0.0000
vn -0.0000 -0.0000 -1.0000
vt 1.232577 0.007572
vt 1.232577 0.988006
vt 0.987576 0.988006
vt 0.987576 0.007572
vt 0.501385 1.984768
vt 0.376979 1.984768
vt 0.376979 1.739767
vt 0.501385 1.739767
vt 1.111982 0.988006
vt 0.987576 1.968441
vt 0.987576 0.988006
vt 0.252574 0.995868
vt 0.007573 0.995868
vt 0.007573 0.007572
vt 0.252574 0.007572
vt 1.358814 1.976303
vt 1.235398 1.960642
vt 1.358814 0.988006
s 0
usemtl Material
f 43/96/30 45/97/30 47/98/30 44/99/30
f 48/100/31 47/101/31 45/102/31 46/103/31
f 51/104/32 52/105/32 44/105/32 47/106/32 48/104/32
f 46/107/30 50/107/30 51/107/30 48/107/30
f 49/107/30 43/107/30 44/107/30 52/107/30
f 51/107/33 50/108/33 49/109/33 52/110/33
f 46/111/34 45/112/34 43/113/34 49/113/34 50/111/34
o Cube.006
v 0.406428 0.002115 -0.496725
v 0.406428 0.002115 0.489514
v 0.000207 -0.398061 -0.496725
v 0.406428 -0.398061 -0.496725
v 0.000207 -0.398061 0.489514
v 0.406428 -0.398061 0.489514
v 0.000207 -0.398061 -0.496725
v 0.406428 0.002115 -0.496725
v 0.406428 0.002115 0.489514
v 0.000207 -0.398061 0.489514
vn -0.0000 -0.0000 1.0000
vn -0.0000 -1.0000 -0.0000
vn 1.0000 -0.0000 -0.0000
vn -1.0000 -0.0000 -0.0000
vn -0.7018 0.7124 -0.0000
vn -0.0000 -0.0000 -1.0000
vt 1.855445 1.968441
vt 1.731041 0.988006
vt 1.855446 0.988006
vt 0.131978 2.221304
vt 0.007573 2.221303
vt 0.007573 1.976303
vt 0.131978 1.976303
vt 1.722579 0.007572
vt 1.722579 0.988006
vt 1.477578 0.988006
vt 1.477578 0.007572
vt 0.252574 0.995868
vt 0.742575 0.007572
vt 0.987576 0.007572
vt 0.987576 0.995868
vt 0.742575 0.995868
vt 0.007573 0.995868
vt 0.131978 0.995868
vt 0.007573 1.976303
s 0
usemtl Material
f 54/114/35 61/114/35 62/115/35 57/115/35 58/116/35
f 58/117/36 57/118/36 55/119/36 56/120/36
f 56/121/37 53/122/37 54/123/37 58/124/37
f 59/125/38 55/125/38 57/125/38 62/125/38
f 53/125/38 60/125/38 61/125/38 54/125/38
f 59/126/39 62/127/39 61/128/39 60/129/39
f 56/130/40 55/131/40 59/131/40 60/132/40 53/132/40
o Cube.007
v 0.000207 0.402350 -0.496725
v 0.406428 0.402350 -0.496725
v 0.000207 0.402350 0.489514
v 0.406428 0.402350 0.489514
v 0.406428 0.002174 -0.496725
v 0.406428 0.002174 0.489514
v 0.406428 0.002174 -0.496725
v 0.000207 0.402350 -0.496725
v 0.000207 0.402350 0.489514
v 0.406428 0.002174 0.489514
vn -0.0000 -0.0000 1.0000
vn -1.0000 -0.0000 -0.0000
vn 1.0000 -0.0000 -0.0000
vn -0.0000 1.0000 -0.0000
vn -0.7018 -0.7124 -0.0000
vn -0.0000 -0.0000 -1.0000
vt 1.358814 1.003667
vt 1.482230 0.988006
vt 1.482230 1.976303
vt 0.252574 0.995868
vt 1.967580 0.007572
vt 1.967580 0.988006
vt 1.722579 0.988006
vt 1.722579 0.007572
vt 1.481388 2.221304
vt 1.356983 2.221304
vt 1.356983 1.976303
vt 1.481388 1.976303
vt 0.252574 0.007572
vt 0.497575 0.007572
vt 0.497575 0.995868
vt 0.252573 0.995868
vt 1.111982 1.976303
vt 1.111982 0.988006
vt 1.235398 1.003667
s 0
usemtl Material
f 66/133/41 65/134/41 71/134/41 72/135/41 68/135/41
f 63/136/42 70/136/42 71/136/42 65/136/42
f 67/137/43 64/138/43 66/139/43 68/140/43
f 64/141/44 63/142/44 65/143/44 66/144/44
f 68/136/42 72/136/42 69/136/42 67/136/42
f 71/145/45 70/146/45 69/147/45 72/148/45
f 67/149/46 69/149/46 70/150/46 63/150/46 64/151/46
